<svg viewBox="-10 -10 50 50" fill="none" class="icon icon-cart" xmlns="http://www.w3.org/2000/svg">
<path d="M5.83301 8.1665V7.4165C5.60612 7.4165 5.39143 7.51921 5.24905 7.69587C5.10668 7.87253 5.05193 8.10414 5.10013 8.32585L5.83301 8.1665ZM21.9213 8.1665L21.9214 7.4165H21.9213V8.1665ZM24.4997 8.1665L25.246 8.24117L25.3285 7.4165L24.4997 7.4165L24.4997 8.1665ZM24.243 10.732L24.9893 10.8066V10.8066L24.243 10.732ZM23.543 17.732L22.7967 17.6574V17.6574L23.543 17.732ZM23.3528 19.8332V20.5832H24.0363L24.0996 19.9026L23.3528 19.8332ZM21.2213 19.8332V20.5832H21.2214L21.2213 19.8332ZM10.0797 19.8332V19.0832H10.0794L10.0797 19.8332ZM8.40663 19.8332L7.67667 20.0054L7.81299 20.5832H8.40663V19.8332ZM7.9347 17.8328L7.20171 17.9922L7.20474 18.005L7.9347 17.8328ZM5.83301 8.9165H21.9213V7.4165H5.83301V8.9165ZM23.4967 10.6574L22.7967 17.6574L24.2893 17.8066L24.9893 10.8066L23.4967 10.6574ZM22.7967 17.6574C22.7896 17.729 22.7852 17.7723 22.7827 17.7979C22.7815 17.8103 22.7805 17.8207 22.7798 17.8287C22.7794 17.8323 22.7789 17.8386 22.7783 17.8456C22.7781 17.849 22.7776 17.8555 22.7772 17.8637C22.777 17.8673 22.7756 17.8902 22.7762 17.919C22.7763 17.9279 22.777 17.9729 22.7864 18.0292C22.7901 18.0513 22.8031 18.1271 22.8435 18.2159C22.8612 18.2546 23.0176 18.6032 23.4434 18.6504C23.851 18.6957 24.0796 18.4122 24.1013 18.3863C24.1604 18.3156 24.1922 18.2505 24.2017 18.2306C24.2255 18.1813 24.2384 18.1401 24.2408 18.1323C24.2508 18.1011 24.2609 18.0579 24.2544 18.0843C24.254 18.0859 24.2516 18.0954 24.2482 18.1075C24.2466 18.1133 24.2366 18.1496 24.218 18.1938C24.2105 18.2115 24.1855 18.2703 24.1385 18.3366C24.115 18.3697 24.066 18.4335 23.9866 18.4951C23.9073 18.5567 23.7505 18.6515 23.5304 18.6525C23.0436 18.6548 22.8595 18.2461 22.847 18.2191C22.8048 18.1284 22.7915 18.0508 22.788 18.0309C22.7786 17.9766 22.7776 17.9333 22.7774 17.9258C22.7769 17.9102 22.7771 17.898 22.7772 17.8923C22.7773 17.8805 22.7778 17.8721 22.7779 17.8711C22.778 17.8677 22.778 17.8692 22.7772 17.88C22.7704 17.9706 22.7381 18.3433 22.6061 19.7637L24.0996 19.9026C24.231 18.4898 24.2649 18.0997 24.273 17.992C24.2741 17.978 24.2751 17.9635 24.2758 17.9501C24.2761 17.944 24.2767 17.932 24.2769 17.9177C24.2771 17.9108 24.2772 17.8976 24.2767 17.8813C24.2765 17.8731 24.2754 17.8293 24.266 17.7746C24.2625 17.7546 24.2491 17.6768 24.2069 17.5861C24.1943 17.559 24.0102 17.1503 23.5234 17.1526C23.3032 17.1536 23.1465 17.2484 23.0671 17.31C22.9876 17.3717 22.9387 17.4354 22.9152 17.4686C22.8681 17.535 22.843 17.5938 22.8355 17.6117C22.8168 17.656 22.8067 17.6927 22.805 17.6989C22.8014 17.7113 22.799 17.7212 22.7985 17.7233C22.7917 17.7504 22.8017 17.7081 22.8115 17.6774C22.8139 17.6697 22.8268 17.6286 22.8505 17.5793C22.8601 17.5595 22.8918 17.4944 22.9509 17.4237C22.9725 17.3978 23.2012 17.1144 23.6088 17.1596C24.0345 17.2068 24.191 17.5554 24.2086 17.5941C24.249 17.6829 24.262 17.7586 24.2657 17.7807C24.2751 17.837 24.2757 17.8818 24.2759 17.8905C24.2769 17.9429 24.2706 17.997 24.2735 17.9651C24.2737 17.963 24.2743 17.9573 24.2755 17.9448C24.2779 17.9207 24.2821 17.879 24.2893 17.8066L22.7967 17.6574ZM23.3528 19.0832C22.3529 19.0832 21.8 19.0831 21.2213 19.0832L21.2214 20.5832C21.8 20.5831 22.3528 20.5832 23.3528 20.5832V19.0832ZM21.2213 19.0832H10.0797V20.5832H21.2213V19.0832ZM10.0794 19.0832C9.53993 19.0834 9.16942 19.0832 8.40663 19.0832V20.5832C9.16855 20.5832 9.54019 20.5834 10.08 20.5832L10.0794 19.0832ZM9.13659 19.661L8.66466 17.6606L7.20474 18.005L7.67667 20.0054L9.13659 19.661ZM8.66757 17.6735L6.56589 8.00716L5.10013 8.32585L7.20182 17.9922L8.66757 17.6735ZM21.9213 8.9165C22.5733 8.91653 23.2564 8.91651 24.4997 8.9165L24.4997 7.4165C23.2564 7.41651 22.5733 7.41653 21.9214 7.4165L21.9213 8.9165ZM23.7534 8.09184C23.4967 10.6573 23.5616 10.0086 23.4967 10.6574L24.9893 10.8066C25.0542 10.1579 24.9893 10.8067 25.246 8.24117L23.7534 8.09184Z" fill="currentColor"/>
<path d="M5.10536 8.34841L5.2871 9.07606L6.7424 8.71257L6.56065 7.98492L5.10536 8.34841ZM4.88801 4.38317L5.61565 4.20142L5.61553 4.20092L4.88801 4.38317ZM4.70434 3.5L5.44103 3.35933L5.32467 2.74999L4.70433 2.75L4.70434 3.5ZM3.75634 3.5L3.75636 2.75H3.75634V3.5ZM2.33301 2.75H1.58301V4.25H2.33301V2.75ZM6.56065 7.98492L5.61565 4.20142L4.16036 4.56491L5.10536 8.34841L6.56065 7.98492ZM5.61553 4.20092C5.58894 4.09477 5.54636 3.89129 5.50778 3.69927C5.48915 3.60649 5.47241 3.52127 5.46033 3.4592C5.45429 3.4282 5.44944 3.40307 5.4461 3.38575C5.44444 3.3771 5.44315 3.3704 5.44229 3.36592C5.44186 3.36367 5.44154 3.36198 5.44132 3.36087C5.44122 3.36032 5.44114 3.35991 5.44109 3.35965C5.44107 3.35952 5.44105 3.35943 5.44104 3.35937C5.44103 3.35935 5.44103 3.35933 5.44103 3.35932C5.44103 3.35932 5.44103 3.35932 5.44103 3.35932C5.44103 3.35932 5.44103 3.35933 4.70434 3.5C3.96765 3.64067 3.96765 3.64068 3.96765 3.6407C3.96766 3.64071 3.96766 3.64072 3.96766 3.64074C3.96767 3.64077 3.96767 3.64081 3.96768 3.64086C3.9677 3.64095 3.96773 3.64109 3.96776 3.64127C3.96783 3.64162 3.96793 3.64212 3.96805 3.64276C3.9683 3.64406 3.96866 3.64594 3.96912 3.64838C3.97006 3.65325 3.97142 3.66036 3.97317 3.66945C3.97668 3.68762 3.98172 3.71374 3.98797 3.74583C4.00045 3.80994 4.01778 3.89821 4.03716 3.99468C4.07462 4.18118 4.12388 4.41928 4.16049 4.56542L5.61553 4.20092ZM4.70434 3.5C4.70433 2.75 4.70433 2.75 4.70432 2.75C4.70432 2.75 4.70431 2.75 4.7043 2.75C4.70428 2.75 4.70425 2.75 4.70421 2.75C4.70412 2.75 4.704 2.75 4.70383 2.75C4.7035 2.75 4.703 2.75 4.70235 2.75C4.70104 2.75 4.69909 2.75 4.69654 2.75C4.69144 2.75 4.68392 2.75 4.67427 2.75C4.65495 2.75 4.62706 2.75 4.59278 2.75C4.52423 2.75 4.43011 2.75 4.32787 2.75C4.12338 2.75 3.88639 2.75 3.75636 2.75L3.75632 4.25C3.88638 4.25 4.12339 4.25 4.32787 4.25C4.43012 4.25 4.52424 4.25 4.59279 4.25C4.62707 4.25 4.65496 4.25 4.67428 4.25C4.68394 4.25 4.69145 4.25 4.69656 4.25C4.69911 4.25 4.70106 4.25 4.70236 4.25C4.70302 4.25 4.70351 4.25 4.70385 4.25C4.70401 4.25 4.70414 4.25 4.70422 4.25C4.70426 4.25 4.70429 4.25 4.70431 4.25C4.70433 4.25 4.70433 4.25 4.70434 4.25C4.70434 4.25 4.70435 4.25 4.70434 3.5ZM3.75634 2.75H2.33301V4.25H3.75634V2.75Z" fill="currentColor"/>
<path d="M9.33301 24.5H11.6663" stroke="currentColor" stroke-width="1.5" stroke-linecap="square" stroke-linejoin="round"/>
<path d="M18.667 24.5H21.0003" stroke="currentColor" stroke-width="1.5" stroke-linecap="square" stroke-linejoin="round"/>
</svg>
