<svg width="28" height="28" viewBox="0 0 28 28" fill="none" xmlns="http://www.w3.org/2000/svg">
<path d="M5.83337 8.16669V7.41669C5.60649 7.41669 5.39179 7.5194 5.24942 7.69605C5.10704 7.87271 5.05229 8.10432 5.1005 8.32603L5.83337 8.16669ZM21.9217 8.16669L21.9217 7.41669H21.9217V8.16669ZM24.5001 8.16669L25.2463 8.24135L25.3288 7.41668L24.5001 7.41669L24.5001 8.16669ZM24.2434 10.7322L24.9897 10.8068V10.8068L24.2434 10.7322ZM23.5434 17.7322L22.7971 17.6576V17.6576L23.5434 17.7322ZM23.3532 19.8334V20.5834H24.0367L24.1 19.9028L23.3532 19.8334ZM21.2217 19.8334V20.5834H21.2217L21.2217 19.8334ZM10.08 19.8334V19.0834H10.0797L10.08 19.8334ZM8.407 19.8334L7.67704 20.0056L7.81335 20.5834H8.407V19.8334ZM7.93506 17.833L7.20207 17.9924L7.2051 18.0052L7.93506 17.833ZM5.83337 8.91669H21.9217V7.41669H5.83337V8.91669ZM23.4971 10.6576L22.7971 17.6576L24.2897 17.8068L24.9897 10.8068L23.4971 10.6576ZM22.7971 17.6576C22.7899 17.7292 22.7856 17.7725 22.7831 17.7981C22.7819 17.8105 22.7809 17.8209 22.7801 17.8289C22.7798 17.8325 22.7792 17.8388 22.7787 17.8458C22.7784 17.8492 22.778 17.8557 22.7775 17.8638C22.7773 17.8675 22.776 17.8903 22.7765 17.9192C22.7767 17.9281 22.7773 17.973 22.7868 18.0293C22.7905 18.0515 22.8034 18.1273 22.8439 18.2161C22.8615 18.2547 23.018 18.6034 23.4437 18.6506C23.8514 18.6959 24.08 18.4124 24.1017 18.3865C24.1608 18.3158 24.1925 18.2506 24.2021 18.2308C24.2259 18.1815 24.2387 18.1403 24.2412 18.1325C24.2511 18.1013 24.2613 18.0581 24.2548 18.0844C24.2543 18.0861 24.252 18.0956 24.2486 18.1077C24.247 18.1135 24.2369 18.1498 24.2183 18.194C24.2109 18.2117 24.1859 18.2705 24.1388 18.3368C24.1154 18.3699 24.0664 18.4337 23.987 18.4953C23.9076 18.5569 23.7509 18.6517 23.5307 18.6527C23.044 18.655 22.8599 18.2463 22.8474 18.2193C22.8052 18.1286 22.7918 18.0509 22.7884 18.0311C22.779 17.9768 22.778 17.9335 22.7777 17.926C22.7773 17.9104 22.7774 17.8982 22.7775 17.8925C22.7777 17.8807 22.7782 17.8723 22.7782 17.8713C22.7784 17.8679 22.7784 17.8694 22.7776 17.8802C22.7708 17.9708 22.7385 18.3434 22.6064 19.7639L24.1 19.9028C24.2313 18.4899 24.2653 18.0999 24.2734 17.9922C24.2744 17.9782 24.2754 17.9637 24.2761 17.9503C24.2765 17.9441 24.2771 17.9322 24.2773 17.9179C24.2774 17.911 24.2776 17.8978 24.2771 17.8815C24.2768 17.8733 24.2758 17.8295 24.2663 17.7748C24.2629 17.7548 24.2495 17.677 24.2072 17.5863C24.1947 17.5592 24.0106 17.1505 23.5238 17.1527C23.3036 17.1538 23.1468 17.2486 23.0675 17.3102C22.988 17.3718 22.939 17.4356 22.9155 17.4687C22.8684 17.5351 22.8434 17.594 22.8359 17.6118C22.8172 17.6562 22.8071 17.6929 22.8053 17.699C22.8018 17.7115 22.7994 17.7214 22.7988 17.7235C22.7921 17.7506 22.8021 17.7083 22.8119 17.6775C22.8143 17.6698 22.8271 17.6288 22.8509 17.5795C22.8604 17.5597 22.8921 17.4945 22.9513 17.4239C22.9729 17.398 23.2015 17.1145 23.6092 17.1598C24.0349 17.207 24.1914 17.5556 24.209 17.5943C24.2494 17.6831 24.2623 17.7588 24.2661 17.7809C24.2755 17.8372 24.2761 17.882 24.2763 17.8907C24.2773 17.9431 24.271 17.9972 24.2739 17.9653C24.2741 17.9632 24.2746 17.9575 24.2759 17.945C24.2782 17.9209 24.2824 17.8792 24.2897 17.8068L22.7971 17.6576ZM23.3532 19.0834C22.3532 19.0834 21.8003 19.0833 21.2217 19.0834L21.2217 20.5834C21.8003 20.5833 22.3532 20.5834 23.3532 20.5834V19.0834ZM21.2217 19.0834H10.08V20.5834H21.2217V19.0834ZM10.0797 19.0834C9.5403 19.0836 9.16978 19.0834 8.407 19.0834V20.5834C9.16891 20.5834 9.54055 20.5836 10.0803 20.5834L10.0797 19.0834ZM9.13696 19.6611L8.66502 17.6608L7.2051 18.0052L7.67704 20.0056L9.13696 19.6611ZM8.66794 17.6737L6.56625 8.00734L5.1005 8.32603L7.20219 17.9923L8.66794 17.6737ZM21.9217 8.91669C22.5737 8.91671 23.2568 8.9167 24.5001 8.91669L24.5001 7.41669C23.2567 7.4167 22.5737 7.41671 21.9217 7.41669L21.9217 8.91669ZM23.7538 8.09202C23.4971 10.6574 23.562 10.0088 23.4971 10.6576L24.9897 10.8068C25.0545 10.1581 24.9896 10.8069 25.2463 8.24135L23.7538 8.09202Z" fill="black"/>
<path d="M5.10573 8.34841L5.28747 9.07606L6.74276 8.71257L6.56102 7.98492L5.10573 8.34841ZM4.88837 4.38317L5.61602 4.20142L5.61589 4.20092L4.88837 4.38317ZM4.7047 3.5L5.44139 3.35933L5.32504 2.74999L4.7047 2.75L4.7047 3.5ZM3.75671 3.5L3.75673 2.75H3.75671V3.5ZM2.33337 2.75H1.58337V4.25H2.33337V2.75ZM6.56102 7.98492L5.61602 4.20142L4.16073 4.56491L5.10573 8.34841L6.56102 7.98492ZM5.61589 4.20092C5.5893 4.09477 5.54672 3.89129 5.50815 3.69927C5.48951 3.60649 5.47278 3.52127 5.4607 3.4592C5.45466 3.4282 5.4498 3.40307 5.44647 3.38575C5.4448 3.3771 5.44352 3.3704 5.44266 3.36592C5.44223 3.36367 5.4419 3.36198 5.44169 3.36087C5.44158 3.36032 5.44151 3.35991 5.44146 3.35965C5.44143 3.35952 5.44141 3.35943 5.4414 3.35937C5.4414 3.35935 5.44139 3.35933 5.44139 3.35932C5.44139 3.35932 5.44139 3.35932 5.44139 3.35932C5.44139 3.35932 5.44139 3.35933 4.7047 3.5C3.96802 3.64067 3.96802 3.64068 3.96802 3.6407C3.96802 3.64071 3.96802 3.64072 3.96803 3.64074C3.96803 3.64077 3.96804 3.64081 3.96805 3.64086C3.96807 3.64095 3.9681 3.64109 3.96813 3.64127C3.9682 3.64162 3.96829 3.64212 3.96842 3.64276C3.96866 3.64406 3.96902 3.64594 3.96949 3.64838C3.97043 3.65325 3.97179 3.66036 3.97354 3.66945C3.97704 3.68762 3.98209 3.71374 3.98834 3.74583C4.00082 3.80994 4.01815 3.89821 4.03753 3.99468C4.07499 4.18118 4.12424 4.41928 4.16085 4.56542L5.61589 4.20092ZM4.7047 3.5C4.7047 2.75 4.70469 2.75 4.70469 2.75C4.70468 2.75 4.70468 2.75 4.70467 2.75C4.70465 2.75 4.70461 2.75 4.70457 2.75C4.70449 2.75 4.70436 2.75 4.7042 2.75C4.70387 2.75 4.70337 2.75 4.70272 2.75C4.70141 2.75 4.69946 2.75 4.69691 2.75C4.69181 2.75 4.68429 2.75 4.67463 2.75C4.65531 2.75 4.62743 2.75 4.59315 2.75C4.52459 2.75 4.43048 2.75 4.32823 2.75C4.12374 2.75 3.88676 2.75 3.75673 2.75L3.75669 4.25C3.88674 4.25 4.12375 4.25 4.32824 4.25C4.43049 4.25 4.5246 4.25 4.59316 4.25C4.62744 4.25 4.65533 4.25 4.67464 4.25C4.6843 4.25 4.69182 4.25 4.69692 4.25C4.69947 4.25 4.70142 4.25 4.70273 4.25C4.70339 4.25 4.70388 4.25 4.70421 4.25C4.70438 4.25 4.7045 4.25 4.70459 4.25C4.70463 4.25 4.70466 4.25 4.70468 4.25C4.70469 4.25 4.7047 4.25 4.7047 4.25C4.70471 4.25 4.70471 4.25 4.7047 3.5ZM3.75671 2.75H2.33337V4.25H3.75671V2.75Z" fill="black"/>
<path d="M9.33337 24.5H11.6667" stroke="black" stroke-width="1.5" stroke-linecap="square" stroke-linejoin="round"/>
<path d="M18.6666 24.5H21" stroke="black" stroke-width="1.5" stroke-linecap="square" stroke-linejoin="round"/>
</svg>
