<svg width="60" height="60" viewBox="0 0 60 60" fill="none" xmlns="http://www.w3.org/2000/svg">
<path d="M57.1856 52.6595C57.073 52.6595 56.9529 52.6295 56.8478 52.562L0.413019 15.0788C0.135311 14.8912 0.0602545 14.5159 0.24039 14.2382C0.42803 13.9605 0.803312 13.8854 1.08102 14.0656L57.5233 51.5412C57.8011 51.7288 57.8761 52.1041 57.696 52.3818C57.5759 52.5545 57.3882 52.652 57.1931 52.652" fill="#2A2927"/>
<path d="M25.5641 38.4138C25.459 38.4138 25.3539 38.3838 25.2563 38.3312L15.0112 32.3342C14.8235 32.2216 14.7109 32.019 14.7109 31.8013C14.7109 31.5837 14.831 31.381 15.0262 31.2759L25.414 25.5116C25.5941 25.414 25.8043 25.4065 25.9844 25.5041L36.6949 30.9907C36.8901 31.0883 37.0177 31.2909 37.0252 31.5161C37.0252 31.7413 36.9126 31.9439 36.7249 32.0565L25.8718 38.3312C25.7817 38.3838 25.6767 38.4138 25.5716 38.4138M16.5498 31.8238L25.5716 37.1078L35.1563 31.5687L25.7292 26.735L16.5498 31.8313V31.8238Z" fill="#2A2927"/>
<path d="M25.7068 50.9255C25.6018 50.9255 25.4892 50.8955 25.3916 50.843L15.3341 44.831C15.1539 44.7259 15.0413 44.5383 15.0413 44.3281L14.7111 32.852C14.7036 32.5142 14.9663 32.2365 15.304 32.229C15.6343 32.2215 15.9195 32.4842 15.927 32.822L16.2497 43.9678L25.6843 49.6121L35.5392 42.8495L35.8094 31.8312C35.8169 31.501 36.0871 31.2383 36.4174 31.2383H36.4324C36.7701 31.2458 37.0328 31.5235 37.0253 31.8612L36.7476 43.1947C36.7476 43.3899 36.6425 43.57 36.4849 43.6826L26.0521 50.843C25.947 50.9105 25.8269 50.9481 25.7068 50.9481" fill="#2A2927"/>
<path d="M25.7066 50.9255C25.3764 50.9255 25.1062 50.6553 25.0987 50.325L24.9561 37.8206C24.9561 37.4829 25.2188 37.2127 25.5565 37.2052C25.8868 37.1902 26.1645 37.4679 26.172 37.8056L26.3146 50.31C26.3146 50.6478 26.0519 50.918 25.7141 50.9255H25.7066Z" fill="#2A2927"/>
<path d="M53.5601 48.1861C53.4325 48.1861 53.3049 48.1486 53.1998 48.066C52.9296 47.8634 52.8771 47.4806 53.0797 47.2179C56.8176 42.2192 58.7915 36.2672 58.7915 30.0075C58.7915 14.1256 45.8743 1.21591 29.9999 1.21591C20.025 1.21591 10.8981 6.2672 5.59164 14.7335C5.4115 15.0188 5.03622 15.1013 4.75851 14.9287C4.4733 14.7486 4.39073 14.3733 4.56336 14.0956C10.095 5.26895 19.6046 0 29.9999 0C46.5423 0 59.9999 13.4576 59.9999 30C59.9999 36.5224 57.9434 42.7295 54.048 47.9384C53.9279 48.0961 53.7477 48.1786 53.5601 48.1786" fill="#2A2927"/>
<path d="M30 60C13.4576 60 0 46.5424 0 30C0 26.1646 0.713035 22.4343 2.11659 18.9066C2.23668 18.5914 2.59695 18.4413 2.90468 18.5689C3.21241 18.6965 3.37003 19.0492 3.24243 19.357C1.89142 22.742 1.20841 26.3222 1.20841 30C1.20841 45.8744 14.1181 58.784 29.9925 58.784C37.6557 58.784 44.8687 55.8043 50.2952 50.4003C50.5354 50.1601 50.9182 50.1676 51.1509 50.4003C51.3835 50.6404 51.3835 51.0232 51.1509 51.2559C45.4916 56.8851 37.9785 59.9924 29.9925 59.9924" fill="#2A2927"/>
<path d="M33.6324 25.3991C33.5274 25.3991 33.4223 25.3691 33.3247 25.3166L23.0795 19.3196C22.8919 19.207 22.7793 19.0043 22.7793 18.7867C22.7793 18.569 22.8994 18.3664 23.0945 18.2613L33.4823 12.497C33.655 12.3994 33.8726 12.3919 34.0528 12.4895L44.7633 17.9761C44.9584 18.0812 45.086 18.2763 45.0935 18.5015C45.0935 18.7266 44.9809 18.9293 44.7933 19.0419L33.9402 25.3166C33.8501 25.3691 33.745 25.3991 33.6399 25.3991M24.6182 18.8092L33.6399 24.0932L43.2246 18.554L33.7976 13.7204L24.6182 18.8167V18.8092Z" fill="#2A2927"/>
<path d="M39.6595 33.8727C39.4643 33.8727 39.2767 33.7826 39.1566 33.61C38.969 33.3323 39.0365 32.957 39.3142 32.7693L43.5999 29.8271L43.8702 18.8089C43.8777 18.4711 44.1479 18.2009 44.4931 18.2159C44.8309 18.2234 45.0936 18.5011 45.0861 18.8389L44.8084 30.1724C44.8084 30.3675 44.7033 30.5477 44.5457 30.6603L40.0048 33.7826C39.8997 33.8577 39.7796 33.8877 39.6595 33.8877" fill="#2A2927"/>
<path d="M23.53 25.3988C23.1998 25.3988 22.9296 25.1361 22.9221 24.8134L22.7795 19.8297C22.7719 19.4919 23.0346 19.2142 23.3649 19.2067C23.6876 19.1992 23.9804 19.4619 23.9879 19.7996L24.1305 24.7834C24.138 25.1211 23.8753 25.3988 23.545 25.4063H23.53V25.3988Z" fill="#2A2927"/>
<path d="M33.7756 28.5812C33.4528 28.5812 33.1826 28.326 33.1676 28.0033L33.025 24.8284C33.01 24.4906 33.2727 24.2129 33.603 24.1979C33.9407 24.1904 34.2184 24.4456 34.2334 24.7758L34.376 27.9507C34.3911 28.2885 34.1284 28.5662 33.7981 28.5812C33.7906 28.5812 33.7831 28.5812 33.7681 28.5812" fill="#2A2927"/>
<path d="M17.6082 16.3549C17.4731 16.3549 17.338 16.3099 17.2254 16.2198L13.9004 13.5553C13.6377 13.3452 13.6002 12.9624 13.8103 12.6997C14.0205 12.437 14.4033 12.3995 14.666 12.6096L17.9909 15.2741C18.2536 15.4843 18.2912 15.8671 18.081 16.1298C17.9609 16.2799 17.7808 16.3549 17.6082 16.3549Z" fill="#2A2927"/>
<path d="M54.0554 38.9843C53.9203 38.9843 53.7852 38.9393 53.6726 38.8492L50.3476 36.1847C50.0849 35.9746 50.0474 35.5918 50.2576 35.3291C50.4677 35.0664 50.8505 35.0289 51.1132 35.239L54.4382 37.9035C54.7009 38.1137 54.7384 38.4965 54.5283 38.7592C54.4082 38.9093 54.2281 38.9843 54.0554 38.9843Z" fill="#2A2927"/>
<path d="M49.1091 13.6079C48.974 13.6079 48.8389 13.5628 48.7263 13.4728L45.4014 10.8083C45.1387 10.5981 45.1011 10.2153 45.3113 9.95263C45.5214 9.68993 45.9042 9.6524 46.1669 9.86256L49.4919 12.5271C49.7546 12.7372 49.7921 13.12 49.582 13.3827C49.4619 13.5328 49.2818 13.6079 49.1091 13.6079Z" fill="#2A2927"/>
<path d="M8.39918 39.75C8.26407 39.75 8.12897 39.7049 8.01639 39.6149L4.6914 36.9504C4.4287 36.7402 4.39117 36.3574 4.60133 36.0947C4.81149 35.832 5.19427 35.7945 5.45697 36.0046L8.78196 38.6691C9.04466 38.8793 9.08219 39.2621 8.87203 39.5248C8.75194 39.6749 8.57181 39.75 8.39918 39.75Z" fill="#2A2927"/>
</svg>
