<svg width="61" height="60" viewBox="0 0 61 60" fill="none" xmlns="http://www.w3.org/2000/svg">
<path d="M30.1375 48.1659C30.0856 48.1659 30.0338 48.1659 29.9819 48.1437C29.8561 48.1066 26.7679 47.2698 23.1466 45.2999C18.3256 42.6709 14.8968 39.257 13.2379 35.4357C11.5791 31.6144 11.431 26.786 12.801 21.4614C13.8304 17.4698 15.3263 14.6408 15.393 14.5297C15.5263 14.2854 15.8077 14.1595 16.0743 14.2335C16.2002 14.2706 19.2883 15.1074 22.9096 17.0773C27.7381 19.7062 31.1594 23.1202 32.8183 26.9415C34.4771 30.7628 34.6252 35.5912 33.2552 40.9158C32.2258 44.9074 30.7299 47.729 30.6633 47.8475C30.5596 48.0474 30.3522 48.1659 30.1375 48.1659ZM16.2298 15.5295C15.778 16.4626 14.7191 18.8176 13.9489 21.7946C13.0454 25.3123 12.3715 30.4591 14.3266 34.9617C16.2816 39.4717 20.4954 42.4932 23.6872 44.2335C26.3828 45.7072 28.8267 46.5367 29.819 46.8477C30.2708 45.9146 31.3298 43.5596 32.0999 40.5826C33.0034 37.0649 33.6773 31.918 31.7223 27.4155C29.7672 22.9055 25.5534 19.884 22.3616 18.1437C19.666 16.67 17.2221 15.8331 16.2298 15.5295Z" fill="#2A2927"/>
<path d="M28.7596 44.9963C28.53 44.9963 28.3078 44.863 28.2116 44.6334L18.2955 21.7798C18.1622 21.4762 18.3029 21.1207 18.6065 20.9948C18.9101 20.8615 19.2656 20.9948 19.3915 21.3059L29.3076 44.1595C29.4409 44.4631 29.3002 44.8186 28.9965 44.9445C28.9151 44.9815 28.841 44.9963 28.7596 44.9963Z" fill="#2A2927"/>
<path d="M22.2728 30.0595C22.1691 30.0595 22.0728 30.0373 21.9765 29.978L16.3705 26.7862C16.0817 26.6233 15.9854 26.2604 16.1483 25.9716C16.3113 25.6828 16.6741 25.5865 16.963 25.7494L22.569 28.9412C22.8578 29.1042 22.9615 29.467 22.7912 29.7558C22.6801 29.9484 22.4801 30.0595 22.2728 30.0595Z" fill="#2A2927"/>
<path d="M25.8646 38.3236C25.7609 38.3236 25.6646 38.3014 25.5683 38.2422L19.9623 35.0504C19.6735 34.8874 19.5772 34.5246 19.7401 34.2357C19.9031 33.9469 20.2659 33.8507 20.5548 34.0136L26.1608 37.2054C26.4496 37.3683 26.5533 37.7312 26.3829 38.02C26.2719 38.2125 26.0719 38.3236 25.8646 38.3236Z" fill="#2A2927"/>
<path d="M22.2801 30.0592C22.2357 30.0592 22.1913 30.0592 22.1394 30.0444C21.821 29.9703 21.6211 29.6445 21.6951 29.326L23.191 23.0535C23.2651 22.7351 23.5909 22.5351 23.9094 22.6092C24.2278 22.6832 24.4278 23.0091 24.3537 23.3275L22.8578 29.6C22.7911 29.874 22.5467 30.0592 22.2801 30.0592Z" fill="#2A2927"/>
<path d="M25.8641 38.3238C25.8197 38.3238 25.7753 38.3238 25.7234 38.309C25.405 38.235 25.205 37.9091 25.2791 37.5907L26.775 31.3182C26.8491 30.9997 27.1749 30.7998 27.4934 30.8738C27.8118 30.9479 28.0117 31.2737 27.9377 31.5922L26.4418 37.8647C26.3751 38.1387 26.1307 38.3238 25.8641 38.3238Z" fill="#2A2927"/>
<path d="M35.825 42.9672C35.6176 42.9672 35.4251 42.8636 35.314 42.6784C35.1437 42.397 35.2399 42.0267 35.5214 41.8564C38.017 40.3679 46.2594 34.8729 47.7109 26.8379C48.5848 22.002 46.7556 17.1514 45.0671 13.93C43.6379 11.2047 42.0679 9.16077 41.4162 8.35356C39.7499 9.3385 33.5589 13.2857 30.5448 19.1731C30.3967 19.4693 30.0338 19.5878 29.7376 19.4323C29.4414 19.2842 29.3303 18.9213 29.4784 18.6251C33.1368 11.4713 40.9422 7.22791 41.2755 7.05018C41.5199 6.91688 41.8235 6.97612 42.0086 7.18348C42.0975 7.28716 44.2007 9.69397 46.1187 13.3375C48.6737 18.203 49.6364 22.9426 48.8958 27.0378C47.3555 35.5691 38.7502 41.3158 36.1434 42.871C36.0472 42.9302 35.9435 42.9524 35.8398 42.9524" fill="#2A2927"/>
<path d="M35.8244 39.9236C35.8244 39.9236 35.7503 39.9236 35.7207 39.9162C35.3948 39.8569 35.1801 39.5459 35.2393 39.22L39.6604 14.7002C39.7197 14.3743 40.0307 14.1596 40.3566 14.2188C40.6824 14.2781 40.8972 14.5891 40.8379 14.9149L36.4168 39.4348C36.365 39.7236 36.1132 39.9236 35.8318 39.9236" fill="#2A2927"/>
<path d="M38.7132 23.8979C38.4911 23.8979 38.2837 23.7794 38.18 23.5646L35.2845 17.7957C35.1364 17.4995 35.2548 17.144 35.5511 16.9959C35.8473 16.8478 36.2028 16.9663 36.3509 17.2625L39.2465 23.0314C39.3946 23.3277 39.2761 23.6905 38.9798 23.8312C38.891 23.8757 38.8021 23.8979 38.7132 23.8979Z" fill="#2A2927"/>
<path d="M37.1136 32.7696C36.8915 32.7696 36.6841 32.6511 36.5804 32.4363L33.6849 26.6674C33.5367 26.3711 33.6552 26.0083 33.9515 25.8602C34.2477 25.712 34.6106 25.8305 34.7587 26.1268L37.6542 31.8957C37.8024 32.1919 37.6839 32.5548 37.3876 32.6955C37.2988 32.7399 37.2099 32.7622 37.121 32.7622" fill="#2A2927"/>
<path d="M38.7126 23.8978C38.5497 23.8978 38.3941 23.8311 38.2757 23.7052C38.0535 23.4609 38.0609 23.0832 38.3053 22.861L43.03 18.4695C43.2744 18.2473 43.6521 18.2547 43.8743 18.4991C44.0964 18.7435 44.089 19.1212 43.8447 19.3434L39.1199 23.7349C39.0014 23.8385 38.8607 23.8978 38.7126 23.8978Z" fill="#2A2927"/>
<path d="M37.1133 32.7699C36.9503 32.7699 36.7948 32.7032 36.6763 32.5773C36.4542 32.3329 36.469 31.9552 36.7059 31.7331L41.4307 27.3416C41.6751 27.1194 42.0528 27.1268 42.2749 27.3712C42.4971 27.6156 42.4897 27.9933 42.2453 28.2154L37.5206 32.6069C37.4021 32.7106 37.2614 32.7699 37.1133 32.7699Z" fill="#2A2927"/>
<path d="M32.2406 53.0093C32.0111 53.0093 31.7889 52.8759 31.6926 52.6464L29.5894 47.8031C29.4561 47.4995 29.5968 47.144 29.9005 47.0181C30.2041 46.8848 30.5596 47.0255 30.6855 47.3292L32.7886 52.1724C32.9219 52.476 32.7812 52.8315 32.4776 52.9574C32.3961 52.9944 32.3221 53.0093 32.2406 53.0093Z" fill="#2A2927"/>
<path d="M30.5 60C13.9559 60 0.5 46.5441 0.5 30C0.5 13.4559 13.9559 0 30.5 0C47.0441 0 60.5 13.4559 60.5 30C60.5 46.5441 47.0441 60 30.5 60ZM30.5 1.1997C14.6224 1.1997 1.6997 14.115 1.6997 30C1.6997 45.885 14.6224 58.8003 30.5 58.8003C46.3776 58.8003 59.3003 45.8776 59.3003 30C59.3003 14.1224 46.3776 1.1997 30.5 1.1997Z" fill="#2A2927"/>
</svg>
