<svg width="60" height="60" viewBox="0 0 60 60" fill="none" xmlns="http://www.w3.org/2000/svg">
<g clip-path="url(#clip0_364_31336)">
<path d="M29.6442 25.8365C29.486 25.8365 29.3278 25.7714 29.2199 25.6557C29.0545 25.4822 25.1494 21.2678 25.1494 15.9618C25.1494 10.6557 29.0473 6.44128 29.2199 6.26778C29.4428 6.02923 29.8456 6.02923 30.0685 6.26778C30.2339 6.44128 34.139 10.6557 34.139 15.9618C34.139 21.2678 30.2411 25.4822 30.0685 25.6557C29.9606 25.7714 29.8096 25.8365 29.6442 25.8365ZM29.6442 7.56176C28.6661 8.78345 26.3145 12.116 26.3145 15.9545C26.3145 19.7931 28.6589 23.1256 29.6442 24.3473C30.6223 23.1256 32.9739 19.7931 32.9739 15.9545C32.9739 12.116 30.6295 8.78345 29.6442 7.56176Z" fill="#2A2927"/>
<path d="M29.644 30.1738C29.493 30.1738 29.342 30.1087 29.2341 30.0003C29.1191 29.8846 29.0615 29.7328 29.0615 29.5738C29.0687 29.328 29.2773 23.581 33.0026 19.8292C36.735 16.0774 42.4596 15.875 42.6969 15.8677C42.8551 15.8605 43.0133 15.9256 43.1212 16.0412C43.2363 16.1569 43.2938 16.3087 43.2938 16.4677C43.2866 16.7135 43.0781 22.4605 39.3528 26.2123C35.6203 29.9641 29.8958 30.1738 29.6584 30.181H29.644V30.1738ZM42.0856 17.0822C40.5322 17.2485 36.5337 17.9352 33.8296 20.6533C31.1255 23.3713 30.4495 27.3906 30.2769 28.9521C31.8303 28.7858 35.8361 28.0991 38.5329 25.381C41.237 22.6629 41.9202 18.6436 42.0856 17.0822Z" fill="#2A2927"/>
<path d="M29.644 39.8168C29.493 39.8168 29.342 39.7517 29.2341 39.6433C29.1191 39.5276 29.0615 39.3758 29.0615 39.2168C29.0687 38.971 29.2773 33.224 33.0026 29.4722C36.735 25.7204 42.4596 25.518 42.6969 25.5107C42.8551 25.5107 43.0133 25.5686 43.1212 25.6842C43.2363 25.7999 43.2938 25.9517 43.2938 26.1107C43.2866 26.3565 43.0781 32.1035 39.3528 35.8553C35.6203 39.6071 29.8958 39.8168 29.6584 39.824H29.644V39.8168ZM42.0856 26.7252C40.5322 26.8915 36.5337 27.5782 33.8296 30.2963C31.1255 33.0144 30.4495 37.0336 30.2769 38.5951C31.8303 38.4288 35.8361 37.7421 38.5329 35.024C41.237 32.3059 41.9202 28.2866 42.0856 26.7252Z" fill="#2A2927"/>
<path d="M29.644 49.5618C29.493 49.5618 29.342 49.504 29.2341 49.3883C29.1191 49.2726 29.0615 49.1208 29.0615 48.9546C29.0615 48.7088 29.2773 42.9546 33.0026 39.21C36.735 35.4582 42.4596 35.2558 42.6969 35.2485C42.8551 35.2485 43.0133 35.3064 43.1284 35.422C43.2435 35.5377 43.301 35.6895 43.301 35.8558C43.2938 36.1015 43.0853 41.8485 39.36 45.6003C35.6275 49.3522 29.9029 49.5618 29.6656 49.5618H29.6512H29.644ZM42.0856 36.4702C40.5322 36.6365 36.5265 37.3232 33.8296 40.0413C31.1327 42.7594 30.4423 46.7787 30.2769 48.3401C31.8303 48.1738 35.8361 47.4871 38.5329 44.769C41.2298 42.0509 41.9202 38.0317 42.0856 36.4702Z" fill="#2A2927"/>
<path d="M29.6439 30.1737H29.6295C29.385 30.1737 23.6676 29.9568 19.9352 26.2122C16.2027 22.4604 16.0013 16.7062 15.9941 16.4676C15.9941 16.3086 16.0517 16.1496 16.1667 16.0339C16.2818 15.9182 16.4328 15.8532 16.5982 15.8604C16.8428 15.8676 22.5601 16.0773 26.2926 19.8219C30.0251 23.5737 30.2264 29.3279 30.2336 29.5664C30.2336 29.7255 30.1761 29.8845 30.061 30.0002C29.9531 30.1086 29.8021 30.1737 29.6511 30.1737M17.2023 17.0821C17.3677 18.6435 18.051 22.67 20.755 25.3809C23.4591 28.0917 27.4576 28.7857 29.011 28.952C28.8456 27.3905 28.1624 23.364 25.4584 20.6532C22.7543 17.9423 18.7557 17.2484 17.2023 17.0821Z" fill="#2A2927"/>
<path d="M29.6439 39.8172H29.6295C29.385 39.8172 23.6676 39.6003 19.9352 35.8557C16.2027 32.1039 16.0013 26.3497 15.9941 26.1111C15.9941 25.9521 16.0517 25.7931 16.1667 25.6774C16.2818 25.5617 16.4328 25.5039 16.5982 25.5039C16.8428 25.5111 22.5601 25.7208 26.2926 29.4654C30.0251 33.2172 30.2264 38.9714 30.2336 39.2099C30.2336 39.369 30.1761 39.528 30.061 39.6437C29.9531 39.7521 29.8021 39.8172 29.6511 39.8172M17.2095 26.7256C17.3749 28.287 18.0581 32.3135 20.7622 35.0244C23.4663 37.7352 27.4648 38.4292 29.0182 38.5955C28.8528 37.034 28.1696 33.0075 25.4656 30.2967C22.7615 27.5858 18.7629 26.8919 17.2095 26.7256Z" fill="#2A2927"/>
<path d="M29.6439 49.5614H29.6295C29.385 49.5614 23.6676 49.3445 19.9352 45.5999C16.2027 41.8481 16.0013 36.0939 15.9941 35.8553C15.9941 35.6963 16.0517 35.5373 16.1667 35.4216C16.2818 35.3059 16.4328 35.2409 16.5982 35.2481C16.8428 35.2553 22.5601 35.465 26.2926 39.2096C30.0251 42.9614 30.2264 48.7156 30.2336 48.9541C30.2336 49.1132 30.1761 49.2722 30.061 49.3879C29.9531 49.4963 29.8021 49.5614 29.6511 49.5614M17.2095 36.4698C17.3749 38.0312 18.0581 42.0577 20.7622 44.7686C23.4663 47.4794 27.4648 48.1734 29.0182 48.3397C28.8528 46.7782 28.1696 42.7517 25.4656 40.0409C22.7615 37.33 18.7629 36.6361 17.2095 36.4698Z" fill="#2A2927"/>
<path d="M54.657 53.1184C54.5491 53.1184 54.434 53.0895 54.3334 53.0244L0.259282 16.9305C-0.00680908 16.7497 -0.0787257 16.3883 0.101066 16.1208C0.280857 15.8534 0.64044 15.7811 0.906531 15.9546L54.9806 52.0485C55.2467 52.2293 55.3186 52.5907 55.146 52.8582C55.0309 53.0244 54.8512 53.1184 54.6642 53.1184" fill="#2A2927"/>
<path d="M29.644 60.0002C29.3204 60.0002 29.0615 59.74 29.0615 59.4147V25.1207C29.0615 24.7954 29.3204 24.5352 29.644 24.5352C29.9677 24.5352 30.2266 24.7954 30.2266 25.1207V59.4147C30.2266 59.74 29.9677 60.0002 29.644 60.0002Z" fill="#2A2927"/>
<path d="M42.7183 17.0242C42.3946 17.0242 42.1357 16.7639 42.1357 16.4386V10.8868C42.1357 10.5615 42.3946 10.3013 42.7183 10.3013C43.0419 10.3013 43.3008 10.5615 43.3008 10.8868V16.4386C43.3008 16.7639 43.0419 17.0242 42.7183 17.0242Z" fill="#2A2927"/>
<path d="M16.5698 17.0242C16.2462 17.0242 15.9873 16.7639 15.9873 16.4386V10.8868C15.9873 10.5615 16.2462 10.3013 16.5698 10.3013C16.8935 10.3013 17.1524 10.5615 17.1524 10.8868V16.4386C17.1524 16.7639 16.8935 17.0242 16.5698 17.0242Z" fill="#2A2927"/>
<path d="M29.644 7.14974C29.3204 7.14974 29.0615 6.8895 29.0615 6.5642V1.01962C29.0615 0.694323 29.3204 0.434082 29.644 0.434082C29.9677 0.434082 30.2266 0.694323 30.2266 1.01962V6.57143C30.2266 6.89673 29.9677 7.15697 29.644 7.15697" fill="#2A2927"/>
<path d="M35.4693 59.1977C35.196 59.1977 34.9515 59.0026 34.9012 58.7206C34.8436 58.4026 35.0522 58.0989 35.3614 58.0411C48.9608 55.4676 58.835 43.4893 58.835 29.5592C58.835 15.6291 49.1478 3.90376 35.8073 1.15677C35.4909 1.09171 35.2895 0.780864 35.3542 0.470021C35.419 0.151948 35.7282 -0.0504614 36.0446 0.0145988C49.9245 2.87002 60 15.2965 60 29.552C60 43.8074 49.7304 56.5086 35.5772 59.1833C35.5412 59.1833 35.5053 59.1905 35.4693 59.1905" fill="#2A2927"/>
<path d="M4.94051 14.646C4.83263 14.646 4.73195 14.6171 4.63846 14.5593C4.36517 14.393 4.27887 14.0316 4.45147 13.7569C8.47161 7.18578 14.7499 2.4653 22.1214 0.448432C22.4306 0.361685 22.7471 0.549637 22.8334 0.86048C22.9197 1.17132 22.7327 1.49662 22.4234 1.57614C15.3396 3.51349 9.30584 8.05325 5.43673 14.3641C5.32885 14.5448 5.13468 14.6388 4.94051 14.6388" fill="#2A2927"/>
<path d="M23.1068 58.8869C23.0636 58.8869 23.0133 58.8869 22.9702 58.8725C9.44265 55.6122 0 43.5544 0 29.552C0 25.5183 0.783891 21.6002 2.31571 17.9062C2.43797 17.6098 2.78317 17.4652 3.07803 17.5954C3.37289 17.7183 3.51672 18.0652 3.38727 18.3616C1.90579 21.911 1.15786 25.6773 1.15786 29.552C1.15786 43.0122 10.2337 54.6002 23.2362 57.7375C23.5455 57.8098 23.7397 58.1279 23.6677 58.4387C23.603 58.7062 23.3657 58.8869 23.1068 58.8869Z" fill="#2A2927"/>
<path d="M42.8048 24.3253C42.6681 24.3253 42.5315 24.2747 42.4236 24.1807C42.1791 23.9711 42.1575 23.6024 42.3661 23.3566L44.3941 21.0289C44.6027 20.7904 44.9694 20.7615 45.214 20.9783C45.4585 21.188 45.4801 21.5566 45.2715 21.8024L43.2434 24.1301C43.1284 24.2603 42.9702 24.3325 42.8048 24.3325" fill="#2A2927"/>
<path d="M43.0132 34.6266C42.8622 34.6266 42.7183 34.5687 42.6033 34.4603C42.3731 34.2362 42.3731 33.8603 42.6033 33.6362L44.768 31.4386C44.9981 31.2073 45.3649 31.2073 45.5878 31.4386C45.8179 31.6627 45.8179 32.0386 45.5878 32.2627L43.4231 34.4603C43.308 34.576 43.157 34.6338 43.0132 34.6338" fill="#2A2927"/>
<path d="M16.5623 24.3252C16.3969 24.3252 16.2387 24.2602 16.1236 24.1228L14.0956 21.7951C13.887 21.5493 13.9086 21.1807 14.1531 20.971C14.3976 20.7614 14.7644 20.7831 14.9729 21.0216L17.001 23.3493C17.2095 23.5879 17.188 23.9638 16.9435 24.1734C16.8356 24.2746 16.6989 24.318 16.5623 24.318" fill="#2A2927"/>
<path d="M16.3535 34.6264C16.2025 34.6264 16.0515 34.5686 15.9364 34.4529L13.7717 32.2554C13.5488 32.024 13.5488 31.6554 13.7717 31.4313C14.0018 31.2072 14.3686 31.2072 14.5915 31.4313L16.7562 33.6288C16.9792 33.8602 16.9792 34.2288 16.7562 34.4529C16.6412 34.5614 16.4973 34.6192 16.3463 34.6192" fill="#2A2927"/>
</g>
<defs>
<clipPath id="clip0_364_31336">
<rect width="60" height="60" fill="white"/>
</clipPath>
</defs>
</svg>
