<svg width="60" height="60" viewBox="0 0 60 60" fill="none" xmlns="http://www.w3.org/2000/svg">
<path d="M30 60C13.4559 60 0 46.5367 0 30C0 13.4633 13.4559 0 30 0C46.5441 0 60 13.4559 60 30C60 46.5441 46.5441 60 30 60ZM30 1.1997C14.115 1.1997 1.1997 14.115 1.1997 30C1.1997 45.885 14.1224 58.8003 30 58.8003C45.8776 58.8003 58.8003 45.8776 58.8003 30C58.8003 14.1224 45.8776 1.1997 30 1.1997Z" fill="#2A2927"/>
<path d="M29.9924 51.5723C29.8591 51.5723 29.7258 51.5279 29.6221 51.439C29.4962 51.3427 26.571 49.0026 23.6088 45.1887C20.8539 41.6488 17.5658 36.1317 17.5733 29.9776C17.5733 23.8236 20.8687 18.3138 23.631 14.774C26.6007 10.9675 29.5333 8.62734 29.6592 8.53107C29.8813 8.36074 30.185 8.36074 30.3997 8.53107C30.5256 8.62734 33.4508 10.9675 36.4205 14.7814C39.1753 18.3212 42.4634 23.8384 42.456 29.9924C42.456 36.1465 39.1605 41.6562 36.3982 45.1961C33.4286 49.0026 30.496 51.3427 30.3701 51.439C30.259 51.5279 30.1257 51.5723 29.9998 51.5723M30.0294 9.78261C29.1482 10.538 26.8376 12.6115 24.5567 15.5367C21.9203 18.9211 18.773 24.1716 18.773 29.9776C18.773 35.7836 21.9055 41.0416 24.5419 44.4259C26.8228 47.3585 29.126 49.4321 30.0072 50.1874C30.8885 49.4395 33.199 47.3585 35.4799 44.4333C38.1163 41.049 41.2637 35.7984 41.2637 29.9924C41.2637 24.1865 38.1311 18.9285 35.4948 15.5441C33.2138 12.6115 30.9107 10.538 30.0294 9.78261Z" fill="#2A2927"/>
<path d="M29.9924 47.5068C29.6592 47.5068 29.3926 47.2402 29.3926 46.9069L29.4148 17.6252C29.4148 17.292 29.6814 17.0254 30.0146 17.0254C30.3479 17.0254 30.6145 17.292 30.6145 17.6252L30.5923 46.9069C30.5923 47.2327 30.3257 47.5068 29.9924 47.5068Z" fill="#2A2927"/>
<path d="M30.0073 28.3709C29.8222 28.3709 29.6445 28.2895 29.526 28.1339L24.9789 22.0614C24.779 21.7948 24.8308 21.4245 25.0974 21.2245C25.364 21.0246 25.7343 21.0764 25.9343 21.343L30.4813 27.4082C30.6812 27.6748 30.6294 28.0451 30.3628 28.245C30.2591 28.3265 30.1258 28.3635 30.0073 28.3635" fill="#2A2927"/>
<path d="M30.0005 38.9681C29.8153 38.9681 29.6376 38.8866 29.5191 38.7311L24.9721 32.6585C24.7721 32.3919 24.824 32.0217 25.0906 31.8217C25.3572 31.6218 25.7275 31.6736 25.9274 31.9402L30.4744 38.0054C30.6744 38.272 30.6226 38.6422 30.356 38.8422C30.2523 38.9237 30.119 38.9607 30.0005 38.9607" fill="#2A2927"/>
<path d="M30.0072 28.3708C29.8813 28.3708 29.7554 28.3338 29.6443 28.2524C29.3777 28.0524 29.3259 27.6747 29.5258 27.4155L34.0802 21.3504C34.2802 21.0838 34.6579 21.0319 34.9171 21.2319C35.1837 21.4318 35.2355 21.8095 35.0356 22.0687L30.4811 28.1339C30.3626 28.2894 30.1849 28.3708 29.9998 28.3708" fill="#2A2927"/>
<path d="M30.0003 38.968C29.8744 38.968 29.7485 38.931 29.6375 38.8495C29.3709 38.6496 29.319 38.2719 29.519 38.0127L34.0734 31.9475C34.2734 31.6809 34.651 31.6291 34.9102 31.829C35.1768 32.029 35.2287 32.4067 35.0287 32.6659L30.4743 38.731C30.3558 38.8866 30.1781 38.968 29.9929 38.968" fill="#2A2927"/>
<path d="M29.1264 51.5872C28.0304 51.5872 26.0531 51.5131 23.7352 51.091C19.1289 50.2542 15.4409 48.4102 13.0785 45.7516C10.7088 43.1004 9.29429 39.2273 8.99066 34.5543C8.76108 31.0589 9.21283 28.3707 9.23504 28.2596C9.27948 27.9856 9.50905 27.7782 9.79046 27.7634C9.95338 27.756 13.908 27.5413 18.3291 28.7484C18.6475 28.8372 18.8327 29.1631 18.7512 29.4815C18.6623 29.8 18.3365 29.9851 18.0181 29.9036C14.6707 28.9927 11.5308 28.9335 10.3533 28.9483C10.0867 31.0737 9.33131 39.7382 13.982 44.9518C18.8327 50.3875 28.0748 50.4097 29.7115 50.3727C29.8151 50.3134 29.9484 50.2912 30.0743 50.306C30.4002 50.343 30.6372 50.6615 30.6001 50.9873C30.5927 51.0688 30.5779 51.1132 30.5779 51.1132C30.5039 51.3576 30.2817 51.5501 30.0299 51.5649C29.9929 51.5649 29.667 51.5872 29.1338 51.5872" fill="#2A2927"/>
<path d="M30.8666 51.5872C30.326 51.5872 30.0076 51.5723 29.9706 51.5649C29.7188 51.5501 29.504 51.3798 29.4374 51.1502C29.4225 51.1058 29.4151 51.0614 29.4077 51.0095C29.3633 50.7133 29.5558 50.4245 29.8521 50.343C29.9928 50.306 30.1335 50.3208 30.252 50.38C31.7553 50.4171 41.1308 50.4467 46.0259 44.9592C50.6766 39.7456 49.9212 31.0811 49.6546 28.9557C48.4845 28.9409 45.3445 29.0001 42.0046 29.911C41.6862 29.9999 41.3529 29.8073 41.2715 29.4889C41.1826 29.1705 41.3751 28.8372 41.6936 28.7558C46.1073 27.5561 50.0545 27.7708 50.2174 27.7782C50.4988 27.793 50.7284 28.0004 50.7728 28.2744C50.795 28.3855 51.2468 31.0737 51.0172 34.5691C50.7062 39.2421 49.2917 43.1078 46.9293 45.7664C44.5595 48.4176 40.879 50.2616 36.2727 51.1058C33.9622 51.5279 31.9775 51.602 30.8888 51.602" fill="#2A2927"/>
</svg>
