<svg width="60" height="60" viewBox="0 0 60 60" fill="none" xmlns="http://www.w3.org/2000/svg">
<path d="M22.1765 48.8005C22.0208 48.8005 21.8652 48.7412 21.7466 48.6226C21.5168 48.3855 21.5168 48.0074 21.754 47.7777C21.7614 47.7703 22.8732 46.6733 23.7775 45.3465C24.3853 44.4497 25.3192 42.8116 24.6817 41.9667C24.1851 41.2996 23.6737 41.144 22.9696 40.9216C21.7688 40.5436 20.279 40.084 18.6558 36.9636C16.4396 32.6869 10.1765 33.9617 10.1172 33.9766C9.79848 34.0433 9.47977 33.8357 9.40565 33.517C9.33153 33.1909 9.53906 32.8722 9.86519 32.8055C9.93931 32.7906 11.6663 32.4275 13.7342 32.6646C16.5508 32.9908 18.6187 34.2879 19.7157 36.4151C21.1018 39.0908 22.2284 39.4392 23.3179 39.7801C24.0962 40.0247 24.9041 40.2768 25.6379 41.2477C27.4835 43.7085 23.0956 48.1335 22.5916 48.6301C22.473 48.7412 22.3247 48.8005 22.1691 48.8005" fill="#2A2927"/>
<path d="M40.6246 48.593C40.5282 48.593 40.4319 48.5707 40.3429 48.5188C39.876 48.2668 39.5647 47.8888 39.4164 47.3996C39.0014 45.9988 40.0761 44.0272 41.1138 42.1149C41.6178 41.181 42.4628 39.6393 42.3664 39.2168C42.3219 39.202 42.1959 39.1797 41.9291 39.2094C36.3479 39.8394 31.8859 36.6374 30.2849 30.8635C29.3139 27.3576 30.6777 26.0902 32.1305 24.7486C33.1385 23.8147 34.2799 22.7548 34.9692 20.6794C35.1249 20.1977 35.3621 19.7455 35.6734 19.3379C35.8735 19.071 36.2515 19.0192 36.5109 19.2193C36.7778 19.4194 36.8297 19.7974 36.6295 20.0568C36.3998 20.3533 36.2293 20.6943 36.1107 21.05C35.3176 23.4219 34.0057 24.6374 32.9458 25.6232C31.5227 26.9426 30.6629 27.7431 31.4411 30.5448C32.8791 35.7109 36.8445 38.5794 41.7957 38.0161C42.5443 37.9345 43.078 38.105 43.3596 38.5349C43.9452 39.4095 43.204 40.7881 42.1663 42.693C41.3287 44.2273 40.2911 46.1396 40.5653 47.0587C40.6172 47.244 40.7284 47.37 40.9137 47.4663C41.2027 47.622 41.3139 47.9852 41.1583 48.2817C41.0471 48.4818 40.847 48.593 40.632 48.593" fill="#2A2927"/>
<path d="M11.7405 25.89C10.8215 25.89 10.1247 25.7714 10.058 25.7566C9.73189 25.6973 9.51694 25.386 9.57624 25.0599C9.63553 24.7338 9.93943 24.5188 10.273 24.5781C11.3848 24.7782 14.4533 24.9191 15.2464 23.2439C16.0395 21.5688 17.596 21.0871 19.108 20.6201C20.1013 20.3162 21.1315 19.9975 21.9913 19.3378C22.6658 18.819 23.2736 18.4706 23.7554 18.1964C24.9339 17.5219 25.2155 17.3588 24.9116 15.8913C24.63 14.5497 19.4935 14.7498 15.8912 15.4169C15.5651 15.4762 15.2538 15.2612 15.1945 14.9351C15.1352 14.609 15.3502 14.2977 15.6763 14.2384C15.7727 14.2236 18.0407 13.8085 20.4126 13.7121C23.9333 13.5713 25.7862 14.2013 26.0827 15.6467C26.5645 17.9666 25.5861 18.5225 24.3483 19.2341C23.874 19.5083 23.3329 19.8196 22.7177 20.2866C21.6874 21.0796 20.5015 21.4428 19.4564 21.769C18.0259 22.2137 16.8919 22.562 16.3286 23.7554C15.4836 25.5417 13.3045 25.89 11.7479 25.89" fill="#2A2927"/>
<path d="M30.0034 51.4985C18.1813 51.4985 8.56055 41.8778 8.56055 30.0557C8.56055 18.2335 18.1813 8.61279 30.0034 8.61279C31.9379 8.61279 33.8502 8.87221 35.6958 9.37623C36.0145 9.46517 36.1998 9.7913 36.1183 10.11C36.0294 10.4287 35.7032 10.614 35.3845 10.5325C33.6427 10.0581 31.8342 9.81353 30.0108 9.81353C18.8484 9.81353 9.7687 18.8932 9.7687 30.0557C9.7687 41.2181 18.8484 50.2978 30.0108 50.2978C35.3104 50.2978 40.3209 48.2595 44.1158 44.5683C47.9108 40.8846 50.0825 35.9482 50.2381 30.6709C50.2455 30.3373 50.5272 30.0779 50.8533 30.0927C51.1869 30.1001 51.4463 30.3818 51.4315 30.7079C51.261 36.2966 48.9633 41.5294 44.946 45.4281C40.9213 49.3416 35.6143 51.4985 30.0034 51.4985Z" fill="#2A2927"/>
<path d="M39.4907 32.6422C39.2757 32.6422 39.0682 32.5236 38.9644 32.3309C38.9051 32.2197 37.4746 29.5885 36.474 25.8677C35.1399 20.9016 35.2362 16.3803 36.7557 12.7855C38.2751 9.19069 41.4475 5.97389 45.9391 3.46864C49.3042 1.59341 52.1874 0.778091 52.306 0.748443C52.5728 0.674323 52.8545 0.792915 52.9953 1.03751C53.0546 1.14869 54.4851 3.77994 55.4857 7.50076C56.8199 12.4668 56.7236 16.9881 55.2041 20.5829C53.6846 24.1777 50.5123 27.4019 46.0206 29.8998C42.6556 31.775 39.7723 32.5903 39.6538 32.62C39.6019 32.6348 39.55 32.6422 39.4907 32.6422ZM52.1652 2.04554C51.2239 2.34943 48.978 3.14993 46.5024 4.52855C43.545 6.18143 39.6463 9.03504 37.8675 13.2525C36.0886 17.4699 36.7557 22.258 37.6303 25.5267C38.3641 28.2617 39.3573 30.4334 39.7946 31.3155C40.7359 31.0116 42.9817 30.2111 45.4573 28.8324C48.4147 27.1796 52.3134 24.326 54.0923 20.1085C57.1238 12.9337 53.1658 4.08384 52.1578 2.03813" fill="#2A2927"/>
<path d="M40.7508 29.67C40.6693 29.67 40.5952 29.6551 40.5211 29.6255C40.2172 29.4995 40.0763 29.1437 40.2023 28.8398L49.2598 7.40436C49.3858 7.10047 49.7416 6.95964 50.0455 7.08565C50.3493 7.21165 50.4902 7.56743 50.3642 7.87132L41.3067 29.3068C41.2104 29.5365 40.988 29.67 40.7582 29.67" fill="#2A2927"/>
<path d="M46.6663 15.6615C46.3995 15.6615 46.1549 15.4762 46.0882 15.2094L44.6354 9.3613C44.5539 9.04259 44.754 8.71646 45.0727 8.63493C45.3914 8.5534 45.7176 8.75352 45.7991 9.07224L47.2518 14.9203C47.3334 15.239 47.1333 15.5651 46.8145 15.6467C46.7627 15.6615 46.7182 15.6615 46.6663 15.6615Z" fill="#2A2927"/>
<path d="M43.3899 23.4144C43.1231 23.4144 42.8785 23.2291 42.8118 22.9623L41.359 17.1142C41.2775 16.7955 41.4776 16.4694 41.7964 16.3879C42.1151 16.3063 42.4412 16.5065 42.5227 16.8252L43.9755 22.6732C44.057 22.9919 43.8569 23.3181 43.5382 23.3996C43.4863 23.4144 43.4418 23.4144 43.3899 23.4144Z" fill="#2A2927"/>
<path d="M46.6659 15.6617C46.4584 15.6617 46.2583 15.5579 46.1471 15.3652C45.9766 15.0761 46.0804 14.713 46.362 14.5425L51.5653 11.511C51.8469 11.3479 52.2175 11.4443 52.388 11.7259C52.5585 12.015 52.4547 12.3782 52.173 12.5487L46.9698 15.5802C46.8735 15.632 46.7697 15.6617 46.6659 15.6617Z" fill="#2A2927"/>
<path d="M43.3896 23.4146C43.182 23.4146 42.9819 23.3109 42.8707 23.1181C42.7002 22.8291 42.804 22.4659 43.0857 22.2954L48.2889 19.2639C48.578 19.1009 48.9411 19.1972 49.1116 19.4789C49.2821 19.7679 49.1783 20.1311 48.8967 20.3016L43.6935 23.3331C43.5971 23.385 43.4933 23.4146 43.3896 23.4146Z" fill="#2A2927"/>
<path d="M30.0037 60C13.4602 60 0 46.5398 0 30.0037C0 13.4676 13.4602 0 30.0037 0C34.6436 0 39.0982 1.03027 43.2267 3.06856C43.5232 3.2168 43.6492 3.57258 43.5009 3.86906C43.3527 4.16553 42.9969 4.29154 42.7004 4.1433C38.7276 2.19395 34.4583 1.20074 30.0037 1.20074C14.1198 1.20074 1.20074 14.1198 1.20074 30.0037C1.20074 45.8876 14.1198 58.8067 30.0037 58.8067C45.8876 58.8067 58.8067 45.8876 58.8067 30.0037C58.8067 26.3051 58.1174 22.7029 56.7536 19.2934C56.6275 18.9895 56.7832 18.6411 57.0871 18.5151C57.391 18.3891 57.7393 18.5448 57.8654 18.8487C59.2885 22.399 60.0074 26.1495 60.0074 30.0037C60.0074 46.5473 46.5473 60 30.0111 60" fill="#2A2927"/>
</svg>
