<svg width="28" height="28" viewBox="0 0 28 28" fill="none" xmlns="http://www.w3.org/2000/svg">
<path fill-rule="evenodd" clip-rule="evenodd" d="M8.70949 1.24399C10.078 1.18099 10.5143 1.16699 14.0003 1.16699C17.4863 1.16699 17.9227 1.18216 19.29 1.24399C20.6573 1.30583 21.5907 1.52399 22.4073 1.84016C23.2625 2.16333 24.0383 2.66849 24.68 3.32183C25.3333 3.96233 25.8373 4.73699 26.1593 5.59333C26.4767 6.40999 26.6937 7.34333 26.7567 8.70833C26.8197 10.0792 26.8337 10.5155 26.8337 14.0003C26.8337 17.4863 26.8185 17.9227 26.7567 19.2912C26.6948 20.6562 26.4767 21.5895 26.1593 22.4062C25.8373 23.2626 25.3325 24.0386 24.68 24.68C24.0383 25.3333 23.2625 25.8373 22.4073 26.1593C21.5907 26.4767 20.6573 26.6937 19.2923 26.7567C17.9227 26.8197 17.4863 26.8337 14.0003 26.8337C10.5143 26.8337 10.078 26.8185 8.70949 26.7567C7.34449 26.6948 6.41116 26.4767 5.59449 26.1593C4.73807 25.8373 3.96212 25.3325 3.32066 24.68C2.66777 24.0391 2.16253 23.2635 1.84016 22.4073C1.52399 21.5907 1.30699 20.6573 1.24399 19.2923C1.18099 17.9215 1.16699 17.4852 1.16699 14.0003C1.16699 10.5143 1.18216 10.078 1.24399 8.71066C1.30583 7.34333 1.52399 6.40999 1.84016 5.59333C2.163 4.73709 2.66863 3.96152 3.32183 3.32066C3.96237 2.66791 4.73754 2.16268 5.59333 1.84016C6.40999 1.52399 7.34333 1.30699 8.70833 1.24399H8.70949ZM19.1862 3.55399C17.8328 3.49216 17.4268 3.47933 14.0003 3.47933C10.5738 3.47933 10.1678 3.49216 8.81449 3.55399C7.56266 3.61116 6.88366 3.81999 6.43099 3.99616C5.83249 4.22949 5.40433 4.50599 4.95516 4.95516C4.52938 5.36939 4.2017 5.87365 3.99616 6.43099C3.81999 6.88366 3.61116 7.56266 3.55399 8.81449C3.49216 10.1678 3.47933 10.5738 3.47933 14.0003C3.47933 17.4268 3.49216 17.8328 3.55399 19.1862C3.61116 20.438 3.81999 21.117 3.99616 21.5697C4.20149 22.1262 4.52933 22.6313 4.95516 23.0455C5.36933 23.4713 5.87449 23.7992 6.43099 24.0045C6.88366 24.1807 7.56266 24.3895 8.81449 24.4467C10.1678 24.5085 10.5727 24.5213 14.0003 24.5213C17.428 24.5213 17.8328 24.5085 19.1862 24.4467C20.438 24.3895 21.117 24.1807 21.5697 24.0045C22.1682 23.7712 22.5963 23.4947 23.0455 23.0455C23.4713 22.6313 23.7992 22.1262 24.0045 21.5697C24.1807 21.117 24.3895 20.438 24.4467 19.1862C24.5085 17.8328 24.5213 17.4268 24.5213 14.0003C24.5213 10.5738 24.5085 10.1678 24.4467 8.81449C24.3895 7.56266 24.1807 6.88366 24.0045 6.43099C23.7712 5.83249 23.4947 5.40433 23.0455 4.95516C22.6312 4.52941 22.127 4.20174 21.5697 3.99616C21.117 3.81999 20.438 3.61116 19.1862 3.55399ZM12.3612 17.9565C13.2766 18.3376 14.2959 18.389 15.2451 18.102C16.1942 17.815 17.0143 17.2074 17.5652 16.3829C18.1161 15.5585 18.3637 14.5683 18.2657 13.5816C18.1677 12.5949 17.7302 11.6728 17.0278 10.9728C16.5801 10.5254 16.0387 10.1828 15.4427 9.96966C14.8467 9.75655 14.2108 9.67825 13.5809 9.74038C12.951 9.80251 12.3427 10.0035 11.7998 10.329C11.2569 10.6544 10.7929 11.0962 10.4412 11.6225C10.0895 12.1488 9.85888 12.7465 9.76593 13.3726C9.67298 13.9987 9.72 14.6377 9.90362 15.2434C10.0872 15.8492 10.4029 16.4067 10.8278 16.8758C11.2528 17.345 11.7765 17.714 12.3612 17.9565ZM9.33599 9.33599C9.94852 8.72346 10.6757 8.23758 11.476 7.90608C12.2763 7.57458 13.1341 7.40396 14.0003 7.40396C14.8666 7.40396 15.7243 7.57458 16.5246 7.90608C17.325 8.23758 18.0521 8.72346 18.6647 9.33599C19.2772 9.94852 19.7631 10.6757 20.0946 11.476C20.4261 12.2763 20.5967 13.1341 20.5967 14.0003C20.5967 14.8666 20.4261 15.7243 20.0946 16.5246C19.7631 17.325 19.2772 18.0521 18.6647 18.6647C17.4276 19.9017 15.7498 20.5967 14.0003 20.5967C12.2509 20.5967 10.573 19.9017 9.33599 18.6647C8.09893 17.4276 7.40396 15.7498 7.40396 14.0003C7.40396 12.2509 8.09893 10.573 9.33599 9.33599ZM22.0597 8.38633C22.2114 8.24314 22.333 8.07095 22.417 7.87996C22.5011 7.68897 22.5459 7.48306 22.549 7.27441C22.552 7.06577 22.5132 6.85863 22.4347 6.66527C22.3563 6.47191 22.2398 6.29625 22.0923 6.1487C21.9447 6.00115 21.7691 5.88471 21.5757 5.80626C21.3824 5.72782 21.1752 5.68896 20.9666 5.69201C20.7579 5.69505 20.552 5.73992 20.361 5.82397C20.17 5.90802 19.9978 6.02954 19.8547 6.18132C19.5762 6.47653 19.4237 6.86863 19.4296 7.27441C19.4356 7.68019 19.5994 8.06768 19.8863 8.35464C20.1733 8.6416 20.5608 8.80543 20.9666 8.81134C21.3723 8.81726 21.7645 8.6648 22.0597 8.38633Z" fill="white"/>
</svg>
