<svg width="28" height="28" viewBox="0 0 28 28" fill="none" xmlns="http://www.w3.org/2000/svg">
<g clip-path="url(#clip0_125_4436)">
<path d="M27.4164 7.59175C27.2579 7.02619 26.949 6.51415 26.5227 6.11008C26.0844 5.69359 25.5472 5.39566 24.9617 5.24442C22.7707 4.66692 13.9927 4.66692 13.9927 4.66692C10.3333 4.62528 6.67474 4.80841 3.03774 5.21525C2.4523 5.37767 1.91607 5.68225 1.47674 6.10192C1.04508 6.51725 0.73241 7.02942 0.569077 7.59058C0.176719 9.70429 -0.0139158 11.8505 -0.000256515 14.0003C-0.0142565 16.1481 0.17591 18.2936 0.569077 20.4099C0.72891 20.9688 1.04041 21.4786 1.47324 21.8904C1.90608 22.3023 2.44508 22.5998 3.03774 22.7573C5.25791 23.3336 13.9927 23.3336 13.9927 23.3336C17.6568 23.3753 21.3201 23.1922 24.9617 22.7853C25.5472 22.634 26.0844 22.3361 26.5227 21.9196C26.9544 21.5078 27.2612 20.9956 27.4152 20.4379C27.8178 18.325 28.0136 16.1779 27.9997 14.0271C28.03 11.8671 27.8345 9.70991 27.4164 7.59058V7.59175ZM11.2021 17.9949V10.0068L18.5054 14.0014L11.2021 17.9949Z" fill="white"/>
</g>
<defs>
<clipPath id="clip0_125_4436">
<rect width="28" height="28" fill="white"/>
</clipPath>
</defs>
</svg>
